<?xml version="1.0" standalone="no"?>
<!DOCTYPE svg PUBLIC "-//W3C//DTD SVG 20010904//EN"
 "http://www.w3.org/TR/2001/REC-SVG-20010904/DTD/svg10.dtd">
<svg version="1.0" xmlns="http://www.w3.org/2000/svg"
 width="700.000000pt" height="700.000000pt" viewBox="0 0 700.000000 700.000000"
 preserveAspectRatio="xMidYMid meet">
<metadata>
Created by potrace 1.11, written by Peter Selinger 2001-2013
</metadata>
<g transform="translate(0.000000,700.000000) scale(0.100000,-0.100000)"
fill="#000000" stroke="none">
<path d="M642 3698 l0 -1748 37 -1 c20 0 126 -1 236 -1 l200 0 0 1749 0 1748
-236 0 -237 1 0 -1748z"/>
<path d="M2065 5443 c-11 -3 -13 -3478 -2 -3490 8 -7 1354 -6 1438 1 528 47
867 266 987 636 12 36 24 79 27 95 3 17 9 44 13 60 13 61 6 338 -10 411 -58
259 -215 462 -452 588 -43 23 -87 39 -220 81 l-38 12 43 7 c56 9 119 31 193
68 78 39 133 81 185 143 115 139 164 300 163 539 -2 341 -160 590 -465 731
-94 43 -252 88 -362 101 -22 3 -51 7 -65 11 -27 6 -1418 12 -1435 6z m1420
-407 c290 -64 425 -217 430 -490 5 -270 -115 -436 -364 -505 -112 -31 -184
-35 -616 -36 l-400 0 -3 526 -2 526 437 -2 c374 -2 450 -5 518 -19z m86 -1444
c183 -44 311 -127 386 -251 24 -40 62 -147 72 -201 13 -74 5 -303 -12 -370
-52 -197 -173 -323 -368 -385 -143 -45 -221 -50 -719 -49 l-395 1 -3 642 -2
642 477 -4 c440 -4 485 -6 564 -25z"/>
<path d="M5350 5381 c0 -36 -1 -802 -1 -1701 -1 -917 -5 -1668 -10 -1710 -5
-41 -11 -91 -14 -112 -2 -20 -11 -64 -20 -99 -70 -270 -230 -375 -574 -374
l-101 0 0 -196 c0 -149 3 -198 13 -201 32 -10 347 3 417 17 14 3 41 8 60 11
96 16 240 75 330 138 210 144 330 418 365 836 4 54 9 3019 5 3416 l0 41 -235
0 -235 0 0 -66z"/>
</g>
</svg>
